<?xml version="1.0" encoding="utf-8"?>
<!-- Designed by Vexels.com - 2016 All Rights Reserved - https://vexels.com/terms-and-conditions/  -->

<svg version="1.1" id="Layer_1" xmlns="http://www.w3.org/2000/svg" xmlns:xlink="http://www.w3.org/1999/xlink" x="0px" y="0px"
	 width="1200px" height="1200px" viewBox="0 0 1200 1200" enable-background="new 0 0 1200 1200" xml:space="preserve">
<g>
	<path fill="#575756" d="M741.581,397.455l-189.397-72.764c-19.383-7.47-41.098,2.186-48.53,21.569L242.478,1026.09
		c-7.507,19.42,2.257,41.21,21.64,48.642l189.397,72.801c19.383,7.361,41.102-2.295,48.534-21.715L763.225,446.06
		C770.732,426.602,761.038,404.925,741.581,397.455z M557.724,431.706c4.227-10.969,16.615-16.506,27.617-12.245
		c11.078,4.265,16.615,16.581,12.242,27.658c-4.153,11.074-16.54,16.469-27.543,12.279
		C558.963,455.134,553.422,442.78,557.724,431.706z M528.428,507.895c4.227-11.04,16.615-16.506,27.621-12.245
		c11.074,4.156,16.615,16.581,12.313,27.584c-4.224,11.078-16.54,16.577-27.617,12.35
		C529.741,531.322,524.201,518.969,528.428,507.895z M417.372,797.087c4.153-11.04,16.54-16.503,27.689-12.313
		c11.007,4.261,16.472,16.648,12.245,27.655c-4.227,11.074-16.614,16.54-27.692,12.35
		C418.682,820.518,413.145,808.165,417.372,797.087z M387.785,993.297c-4.153,11.078-16.615,16.544-27.617,12.354
		c-11.007-4.265-16.544-16.581-12.316-27.655c4.298-11.078,16.615-16.544,27.692-12.279
		C386.546,969.978,392.083,982.332,387.785,993.297z M397.038,909.676c-11.074-4.261-16.615-16.54-12.313-27.58
		c4.224-11.078,16.615-16.544,27.617-12.279c11.078,4.19,16.615,16.54,12.316,27.58C420.432,908.4,408.045,913.941,397.038,909.676z
		 M465.902,1023.321c-4.224,11.148-16.615,16.506-27.617,12.354c-11.078-4.265-16.615-16.615-12.242-27.692
		c4.082-10.969,16.615-16.506,27.547-12.242C464.593,999.965,470.13,1012.318,465.902,1023.321z M502.777,927.421
		c-4.227,11.04-16.614,16.506-27.692,12.354c-10.928-4.265-16.469-16.689-12.242-27.692c4.153-10.969,16.615-16.506,27.617-12.316
		C501.538,904.065,507.004,916.344,502.777,927.421z M535.424,842.453c-4.227,11.04-16.615,16.577-27.617,12.242
		c-11.078-4.19-16.615-16.506-12.316-27.584c4.153-11.003,16.614-16.615,27.547-12.279
		C534.114,819.022,539.651,831.447,535.424,842.453z M613.761,705.888c-18.364,47.803-72.07,71.633-119.801,53.343
		c-47.806-18.439-71.633-72.073-53.343-119.805c18.364-47.803,71.999-71.67,119.801-53.34
		C608.224,604.448,632.126,658.157,613.761,705.888z M646.483,553.22c-4.227,11.078-16.615,16.615-27.617,12.354
		c-11.007-4.265-16.473-16.581-12.316-27.658c4.298-11.074,16.615-16.54,27.692-12.35
		C645.315,529.901,650.781,542.255,646.483,553.22z M675.776,477.106c-4.224,11.003-16.615,16.54-27.617,12.279
		c-11.078-4.19-16.543-16.581-12.316-27.584c4.227-11.078,16.615-16.614,27.621-12.279
		C674.466,453.712,680.078,466.137,675.776,477.106z"/>
	<path fill="#575756" d="M484.267,75.758l28.129,61.249c152.888-59.537,325.817,10.969,387.976,153.836l59.682-24.267
		C885.142,90.88,672.571,2.703,484.267,75.758z"/>
	<path fill="#575756" d="M534.621,188.492l27.692,60.085c37.165-15.051,86.792-12.424,131.024,5.317
		c43.87,17.308,80.524,48.717,95.829,83.625l60.264-24.524C799.514,205.144,652.311,144.805,534.621,188.492z"/>
</g>
</svg>
